<?xml version="1.0" encoding="utf-8"?>
<!-- Generator: Adobe Illustrator 16.0.0, SVG Export Plug-In . SVG Version: 6.00 Build 0)  -->
<!DOCTYPE svg PUBLIC "-//W3C//DTD SVG 1.1//EN" "http://www.w3.org/Graphics/SVG/1.1/DTD/svg11.dtd">
<svg version="1.1" id="Layer_1" xmlns="http://www.w3.org/2000/svg" xmlns:xlink="http://www.w3.org/1999/xlink" x="0px" y="0px"
	 width="357.606px" height="211.888px" viewBox="0 0 357.606 211.888" enable-background="new 0 0 357.606 211.888"
	 xml:space="preserve">
<g>
	<path fill="#231F20" d="M0,0h27.86v8.798H9.349v19.796h16.129v8.797H9.349v27.86H0V0z"/>
	<path fill="#231F20" d="M33.91,0h15.029c11.089,0,16.496,6.507,16.496,19.154c0,7.515-2.108,13.014-8.064,16.313l10.08,29.784
		h-9.897l-8.706-27.86h-5.59v27.86H33.91V0z M43.258,29.143h5.314c6.507,0,7.516-3.665,7.516-10.172
		c0-6.599-1.1-10.173-7.974-10.173h-4.856V29.143z"/>
	<path fill="#231F20" d="M72.951,0h27.86v8.798H82.3v19.153h16.129v8.799H82.3v19.153h18.512v9.348h-27.86V0z"/>
	<path fill="#231F20" d="M106.861,0h13.838c10.539,0,16.404,6.324,16.404,16.863v30.518c0,12.097-6.231,17.87-17.229,17.87h-13.013
		V0z M116.209,56.453h4.307c5.224,0,7.24-2.566,7.24-8.156V16.863c0-5.133-1.741-8.065-7.24-8.065h-4.307V56.453z"/>
	<path fill="#231F20" d="M156.259,0h7.79l14.571,65.251h-9.348l-2.75-14.021h-12.738l-2.749,14.021h-9.348L156.259,0z
		 M160.199,18.787h-0.184l-4.582,23.645h9.348L160.199,18.787z"/>
	<path fill="#231F20" d="M183.203,0h9.348v55.903h18.512v9.348h-27.859V0z"/>
	<path fill="#231F20" d="M217.111,0h9.349v55.903h18.512v9.348h-27.86V0z"/>
	<path fill="#231F20" d="M261.378,0h7.79l14.571,65.251h-9.348l-2.75-14.021h-12.738l-2.749,14.021h-9.348L261.378,0z
		 M265.318,18.787h-0.184l-4.582,23.645h9.348L265.318,18.787z"/>
	<path fill="#231F20" d="M288.322,0h15.029c11.089,0,16.496,6.507,16.496,19.154c0,7.515-2.108,13.014-8.064,16.313l10.08,29.784
		h-9.897l-8.706-27.86h-5.59v27.86h-9.348V0z M297.67,29.143h5.314c6.507,0,7.516-3.665,7.516-10.172
		c0-6.599-1.1-10.173-7.974-10.173h-4.856V29.143z"/>
	<path fill="#231F20" d="M327.363,0h13.839c10.539,0,16.404,6.324,16.404,16.863v30.518c0,12.097-6.231,17.87-17.229,17.87h-13.014
		V0z M336.712,56.453h4.307c5.224,0,7.24-2.566,7.24-8.156V16.863c0-5.133-1.741-8.065-7.24-8.065h-4.307V56.453z"/>
</g>
<g>
	<path fill="#231F20" d="M0,88.715c0-10.631,8.065-15.946,15.672-15.946s15.671,5.315,15.671,15.946v34.458
		c0,10.631-8.064,15.946-15.671,15.946S0,133.804,0,123.173V88.715z M9.349,123.173c0,4.49,2.932,6.599,6.323,6.599
		c3.391,0,6.323-2.108,6.323-6.599V88.715c0-4.49-2.933-6.599-6.323-6.599c-3.392,0-6.323,2.108-6.323,6.599V123.173z"/>
	<path fill="#231F20" d="M39.593,73.318h27.859v8.798H48.94v19.796h16.129v8.798H48.94v27.859h-9.348V73.318z"/>
	<path fill="#231F20" d="M73.501,73.318h27.86v8.798H82.85v19.796h16.129v8.798H82.85v27.859h-9.349V73.318z"/>
	<path fill="#231F20" d="M107.686,73.318h9.348v65.251h-9.348V73.318z"/>
	<path fill="#231F20" d="M155.799,123.998c0,8.064-6.507,15.121-14.847,15.121c-7.148,0-15.396-3.482-15.396-15.396V87.799
		c0-8.523,6.141-15.03,15.213-15.03c8.615,0,15.03,6.507,15.03,15.579v3.666h-9.348v-3.115c0-3.666-2.199-6.782-5.773-6.782
		c-4.674,0-5.774,3.208-5.774,7.606v33.358c0,3.758,1.467,6.69,5.683,6.69c2.565,0,5.865-1.466,5.865-6.599v-3.207h9.348V123.998z"
		/>
	<path fill="#231F20" d="M163.407,73.318h27.859v8.798h-18.512v19.153h16.129v8.798h-16.129v19.154h18.512v9.348h-27.859V73.318z"/>
</g>
<g>
	<path fill="#231F20" d="M0,146.637h9.349v55.903H27.86v9.348H0V146.637z"/>
	<path fill="#231F20" d="M34.185,146.637h9.348v65.251h-9.348V146.637z"/>
	<path fill="#231F20" d="M52.605,146.637h8.981l12.006,34.55h0.183l11.914-34.55h9.073v65.251h-9.348v-39.682h-0.184l-9.256,28.043
		h-4.674l-9.165-28.043h-0.183v39.682h-9.349V146.637z"/>
	<path fill="#231F20" d="M103.837,146.637h9.348v65.251h-9.348V146.637z"/>
	<path fill="#231F20" d="M128.397,155.435h-10.814v-8.798h30.977v8.798h-10.814v56.453h-9.348V155.435z"/>
	<path fill="#231F20" d="M152.684,146.637h27.859v8.798h-18.512v19.154h16.129v8.797h-16.129v19.154h18.512v9.348h-27.859V146.637z"
		/>
	<path fill="#231F20" d="M186.592,146.637h13.839c10.539,0,16.404,6.323,16.404,16.862v30.518c0,12.098-6.231,17.871-17.229,17.871
		h-13.014V146.637z M195.94,203.09h4.307c5.224,0,7.24-2.565,7.24-8.156v-31.435c0-5.132-1.741-8.064-7.24-8.064h-4.307V203.09z"/>
</g>
</svg>
