<svg version="1.1" id="Layer_1" xmlns="http://www.w3.org/2000/svg" x="0" y="0" width="357.606" height="211.888" viewBox="0 0 357.606 211.888" xml:space="preserve"><path d="M0 0h27.86v8.798H9.349v19.796h16.129v8.797H9.349v27.86H0V0zm33.91 0h15.029c11.089 0 16.496 6.507 16.496 19.154 0 7.515-2.108 13.014-8.064 16.313l10.08 29.784h-9.897l-8.706-27.86h-5.59v27.86H33.91V0zm9.348 29.143h5.314c6.507 0 7.516-3.665 7.516-10.172 0-6.599-1.1-10.173-7.974-10.173h-4.856v20.345zM72.951 0h27.86v8.798H82.3v19.153h16.129v8.799H82.3v19.153h18.512v9.348h-27.86V0zm33.91 0h13.838c10.539 0 16.404 6.324 16.404 16.863v30.518c0 12.097-6.231 17.87-17.229 17.87h-13.013V0zm9.348 56.453h4.307c5.224 0 7.24-2.566 7.24-8.156V16.863c0-5.133-1.741-8.065-7.24-8.065h-4.307v47.655zM156.259 0h7.79l14.571 65.251h-9.348l-2.75-14.021h-12.738l-2.749 14.021h-9.348L156.259 0zm3.94 18.787h-.184l-4.582 23.645h9.348l-4.582-23.645zM183.203 0h9.348v55.903h18.512v9.348h-27.859V0zm33.908 0h9.349v55.903h18.512v9.348h-27.86V0zm44.267 0h7.79l14.571 65.251h-9.348l-2.75-14.021h-12.738l-2.749 14.021h-9.348L261.378 0zm3.94 18.787h-.184l-4.582 23.645h9.348l-4.582-23.645zM288.322 0h15.029c11.089 0 16.496 6.507 16.496 19.154 0 7.515-2.108 13.014-8.064 16.313l10.08 29.784h-9.897l-8.706-27.86h-5.59v27.86h-9.348V0zm9.348 29.143h5.314c6.507 0 7.516-3.665 7.516-10.172 0-6.599-1.1-10.173-7.974-10.173h-4.856v20.345zM327.363 0h13.839c10.539 0 16.404 6.324 16.404 16.863v30.518c0 12.097-6.231 17.87-17.229 17.87h-13.014V0zm9.349 56.453h4.307c5.224 0 7.24-2.566 7.24-8.156V16.863c0-5.133-1.741-8.065-7.24-8.065h-4.307v47.655zM0 88.715c0-10.631 8.065-15.946 15.672-15.946s15.671 5.315 15.671 15.946v34.458c0 10.631-8.064 15.946-15.671 15.946S0 133.804 0 123.173V88.715zm9.349 34.458c0 4.49 2.932 6.599 6.323 6.599 3.391 0 6.323-2.108 6.323-6.599V88.715c0-4.49-2.933-6.599-6.323-6.599-3.392 0-6.323 2.108-6.323 6.599v34.458zm30.244-49.855h27.859v8.798H48.94v19.796h16.129v8.798H48.94v27.859h-9.348V73.318zm33.908 0h27.86v8.798H82.85v19.796h16.129v8.798H82.85v27.859h-9.349V73.318zm34.185 0h9.348v65.251h-9.348V73.318zm48.113 50.68c0 8.064-6.507 15.121-14.847 15.121-7.148 0-15.396-3.482-15.396-15.396V87.799c0-8.523 6.141-15.03 15.213-15.03 8.615 0 15.03 6.507 15.03 15.579v3.666h-9.348v-3.115c0-3.666-2.199-6.782-5.773-6.782-4.674 0-5.774 3.208-5.774 7.606v33.358c0 3.758 1.467 6.69 5.683 6.69 2.565 0 5.865-1.466 5.865-6.599v-3.207h9.348v4.033zm7.608-50.68h27.859v8.798h-18.512v19.153h16.129v8.798h-16.129v19.154h18.512v9.348h-27.859V73.318zM0 146.637h9.349v55.903H27.86v9.348H0v-65.251zm34.185 0h9.348v65.251h-9.348v-65.251zm18.42 0h8.981l12.006 34.55h.183l11.914-34.55h9.073v65.251h-9.348v-39.682h-.184l-9.256 28.043H71.3l-9.165-28.043h-.183v39.682h-9.349v-65.251zm51.232 0h9.348v65.251h-9.348v-65.251zm24.56 8.798h-10.814v-8.798h30.977v8.798h-10.814v56.453h-9.348v-56.453zm24.287-8.798h27.859v8.798h-18.512v19.154h16.129v8.797h-16.129v19.154h18.512v9.348h-27.859v-65.251zm33.908 0h13.839c10.539 0 16.404 6.323 16.404 16.862v30.518c0 12.098-6.231 17.871-17.229 17.871h-13.014v-65.251zm9.348 56.453h4.307c5.224 0 7.24-2.565 7.24-8.156v-31.435c0-5.132-1.741-8.064-7.24-8.064h-4.307v47.655z" fill="#231F20"/></svg>