<svg version="1.1" id="Layer_1" xmlns="http://www.w3.org/2000/svg" x="0" y="0" width="357.606" height="211.889" viewBox="0 0 357.606 211.889" xml:space="preserve"><path d="M0 0h27.86v8.798H9.349v19.797h16.129v8.797H9.349v27.859H0V0zm33.91 0h15.029c11.089 0 16.496 6.507 16.496 19.154 0 7.515-2.108 13.014-8.064 16.313l10.08 29.784h-9.897l-8.706-27.859h-5.59v27.859H33.91V0zm9.348 29.143h5.314c6.507 0 7.516-3.665 7.516-10.172 0-6.6-1.1-10.174-7.974-10.174h-4.856v20.346zM72.951 0h27.86v8.798H82.3v19.153h16.129v8.799H82.3v19.153h18.512v9.348h-27.86L72.951 0zm33.91 0h13.838c10.539 0 16.404 6.324 16.404 16.863v30.518c0 12.098-6.231 17.87-17.229 17.87h-13.013V0zm9.348 56.453h4.307c5.224 0 7.24-2.565 7.24-8.156V16.863c0-5.133-1.741-8.065-7.24-8.065h-4.307v47.655zM156.259 0h7.79l14.571 65.251h-9.348l-2.75-14.021h-12.738l-2.749 14.021h-9.348L156.259 0zm3.94 18.787h-.184l-4.582 23.646h9.348l-4.582-23.646zM183.204 0h9.348v55.903h18.512v9.348h-27.859V0h-.001zm33.907 0h9.349v55.903h18.513v9.348h-27.86L217.111 0zm44.266 0h7.791l14.57 65.251h-9.348l-2.75-14.021h-12.738l-2.749 14.021h-9.348L261.377 0zm3.941 18.787h-.185l-4.582 23.646h9.349l-4.582-23.646zM288.322 0h15.028c11.09 0 16.496 6.507 16.496 19.154 0 7.515-2.107 13.014-8.063 16.313l10.08 29.784h-9.898l-8.705-27.859h-5.59v27.859h-9.349V0zm9.348 29.143h5.314c6.506 0 7.516-3.665 7.516-10.172 0-6.6-1.1-10.174-7.975-10.174h-4.855v20.346zM327.364 0h13.838c10.539 0 16.404 6.324 16.404 16.863v30.518c0 12.098-6.23 17.87-17.229 17.87h-13.014V0h.001zm9.347 56.453h4.307c5.225 0 7.24-2.565 7.24-8.156V16.863c0-5.133-1.74-8.065-7.24-8.065h-4.307v47.655zM0 88.715C0 78.084 8.065 72.77 15.672 72.77s15.671 5.314 15.671 15.945v34.458c0 10.632-8.064 15.946-15.671 15.946S0 133.804 0 123.173V88.715zm9.349 34.458c0 4.49 2.932 6.6 6.323 6.6 3.391 0 6.323-2.108 6.323-6.6V88.715c0-4.489-2.933-6.599-6.323-6.599-3.392 0-6.323 2.108-6.323 6.599v34.458zm30.244-49.855h27.859v8.798H48.94v19.796h16.129v8.798H48.94v27.859h-9.348l.001-65.251zm33.908 0h27.86v8.798H82.85v19.796h16.129v8.798H82.85v27.859h-9.349V73.318zm34.185 0h9.348v65.251h-9.348V73.318zm48.113 50.68c0 8.064-6.507 15.121-14.847 15.121-7.148 0-15.396-3.481-15.396-15.396V87.799c0-8.522 6.141-15.029 15.213-15.029 8.615 0 15.03 6.507 15.03 15.579v3.666h-9.348V88.9c0-3.666-2.199-6.782-5.773-6.782-4.674 0-5.774 3.208-5.774 7.606v33.357c0 3.758 1.467 6.69 5.683 6.69 2.565 0 5.865-1.466 5.865-6.6v-3.207h9.348l-.001 4.034zm7.608-50.68h27.859v8.798h-18.512v19.153h16.129v8.798h-16.129v19.154h18.512v9.348h-27.859V73.318zM0 146.637h9.349v55.902H27.86v9.349H0v-65.251zm34.185 0h9.348v65.251h-9.348v-65.251zm18.42 0h8.981l12.006 34.55h.183l11.914-34.55h9.073v65.251h-9.348v-39.683h-.184l-9.256 28.043H71.3l-9.165-28.043h-.183v39.683h-9.349v-65.251h.002zm51.232 0h9.348v65.251h-9.348v-65.251zm24.56 8.798h-10.814v-8.798h30.977v8.798h-10.814v56.453h-9.348l-.001-56.453zm24.287-8.798h27.859v8.798h-18.512v19.153h16.129v8.798h-16.129v19.153h18.512v9.349h-27.859v-65.251zm33.908 0h13.839c10.539 0 16.403 6.322 16.403 16.861v30.519c0 12.098-6.23 17.871-17.229 17.871h-13.014v-65.251zm9.348 56.453h4.307c5.225 0 7.24-2.564 7.24-8.155v-31.436c0-5.132-1.74-8.063-7.24-8.063h-4.307v47.654z" fill="#000"/></svg>